# xmcd CD database file
#
# Track frame offsets:
#	150
#	5452
#	39500
#	85911
#	122604
#	134331
#	143231
#	175342
#	202975
#	224057
#	252093
#	288007
#	325414
#
# Disc length: 4439 seconds
#
# Revision: 0
# Processed by: cddbd v1.5.2PL0 Copyright (c) Steve Scherf et al.
# Submitted via: CDex 1.51
#
DISCID=bc11550d
DTITLE=Abraham-Hicks - 10-12-07 - Tampa, FL
DYEAR=2007
DGENRE=New Age
TTITLE0=Abraham-Hicks Publications
TTITLE1=When you ask for it--it becomes
TTITLE2=Law of Attraction and evolution?
TTITLE3=Source will seek improvement?
TTITLE4=This warm glow he's feeling?
TTITLE5="Close the gap" does feel good
TTITLE6=Transmit Well-Being thoughts
TTITLE7=When friends prepare to croak?
TTITLE8=Prophesying versus attracting
TTITLE9=To know if paranoia's valid
TTITLE10=Intents vs. goals, and allowing
TTITLE11=But he brings relationships
TTITLE12=Tampa, FL Workshop close
EXTD=YEAR: 2007
EXTT0=
EXTT1=
EXTT2=
EXTT3=
EXTT4=
EXTT5=
EXTT6=
EXTT7=
EXTT8=
EXTT9=
EXTT10=
EXTT11=
EXTT12=
PLAYORDER=
